<svg xmlns="http://www.w3.org/2000/svg" width="512" height="512">
    <path style="stroke:none;fill-rule:nonzero;fill:#000;fill-opacity:1" d="M256 48C141.312 48 48 141.313 48 256c0 114.688 93.313 208 208 208 114.688 0 208-93.313 208-208 0-114.688-93.313-208-208-208Zm0 32c5.406 0 10.719.332 16 .813V112h-32l-16 48h-16v16h80l16 16h16v16l-16 16-64-16-64 48v48l32 32h48v40l16 40h16l48-64v-16l16-32v-16h-16l-16-32 16-16 24 16 40-16v-16h28.938c1.921 10.398 3.062 21.055 3.062 32 0 97.04-78.96 176-176 176S80 353.04 80 256 158.96 80 256 80Zm0 0"/>
</svg>
